<svg width="124" height="30" viewBox="0 0 124 30" fill="none" xmlns="http://www.w3.org/2000/svg">
<path d="M47.372 20.236V18.928L51.332 13.6H53.372L49.496 18.928L48.548 18.652H55.16V20.236H47.372ZM51.896 22V20.236L51.956 18.652V17.08H53.792V22H51.896ZM56.0478 23.848L56.8398 20.968L57.1038 22.048C56.7598 22.048 56.4758 21.948 56.2518 21.748C56.0358 21.548 55.9278 21.272 55.9278 20.92C55.9278 20.568 56.0398 20.288 56.2638 20.08C56.4878 19.872 56.7638 19.768 57.0918 19.768C57.4278 19.768 57.7038 19.876 57.9198 20.092C58.1358 20.3 58.2438 20.576 58.2438 20.92C58.2438 21.024 58.2358 21.128 58.2198 21.232C58.2038 21.328 58.1718 21.448 58.1238 21.592C58.0838 21.728 58.0158 21.904 57.9198 22.12L57.2358 23.848H56.0478ZM62.7136 22.144C62.0096 22.144 61.3936 22.04 60.8656 21.832C60.3376 21.616 59.9256 21.316 59.6296 20.932C59.3336 20.54 59.1856 20.084 59.1856 19.564C59.1856 19.044 59.3296 18.604 59.6176 18.244C59.9136 17.876 60.3256 17.6 60.8536 17.416C61.3816 17.224 62.0016 17.128 62.7136 17.128C63.4336 17.128 64.0576 17.224 64.5856 17.416C65.1216 17.6 65.5336 17.876 65.8216 18.244C66.1176 18.604 66.2656 19.044 66.2656 19.564C66.2656 20.084 66.1176 20.54 65.8216 20.932C65.5256 21.316 65.1096 21.616 64.5736 21.832C64.0456 22.04 63.4256 22.144 62.7136 22.144ZM62.7136 20.716C63.2016 20.716 63.5856 20.608 63.8656 20.392C64.1536 20.176 64.2976 19.88 64.2976 19.504C64.2976 19.128 64.1536 18.836 63.8656 18.628C63.5856 18.412 63.2016 18.304 62.7136 18.304C62.2336 18.304 61.8536 18.412 61.5736 18.628C61.2936 18.836 61.1536 19.128 61.1536 19.504C61.1536 19.88 61.2936 20.176 61.5736 20.392C61.8536 20.608 62.2336 20.716 62.7136 20.716ZM62.7136 18.112C62.0656 18.112 61.4976 18.024 61.0096 17.848C60.5296 17.672 60.1536 17.416 59.8816 17.08C59.6176 16.736 59.4856 16.328 59.4856 15.856C59.4856 15.36 59.6216 14.936 59.8936 14.584C60.1656 14.224 60.5456 13.948 61.0336 13.756C61.5216 13.556 62.0816 13.456 62.7136 13.456C63.3616 13.456 63.9256 13.556 64.4056 13.756C64.8936 13.948 65.2736 14.224 65.5456 14.584C65.8256 14.936 65.9656 15.36 65.9656 15.856C65.9656 16.328 65.8296 16.736 65.5576 17.08C65.2936 17.416 64.9176 17.672 64.4296 17.848C63.9416 18.024 63.3696 18.112 62.7136 18.112ZM62.7136 16.972C63.1216 16.972 63.4416 16.88 63.6736 16.696C63.9136 16.512 64.0336 16.26 64.0336 15.94C64.0336 15.604 63.9096 15.344 63.6616 15.16C63.4216 14.976 63.1056 14.884 62.7136 14.884C62.3296 14.884 62.0176 14.976 61.7776 15.16C61.5376 15.344 61.4176 15.604 61.4176 15.94C61.4176 16.26 61.5336 16.512 61.7656 16.696C61.9976 16.88 62.3136 16.972 62.7136 16.972ZM70.1075 13.456C70.8835 13.456 71.5515 13.616 72.1115 13.936C72.6715 14.256 73.1035 14.724 73.4075 15.34C73.7115 15.948 73.8635 16.708 73.8635 17.62C73.8635 18.588 73.6795 19.408 73.3115 20.08C72.9515 20.752 72.4515 21.264 71.8115 21.616C71.1715 21.968 70.4275 22.144 69.5795 22.144C69.1395 22.144 68.7155 22.096 68.3075 22C67.8995 21.904 67.5475 21.76 67.2515 21.568L67.9715 20.14C68.2035 20.3 68.4515 20.412 68.7155 20.476C68.9795 20.532 69.2555 20.56 69.5435 20.56C70.2635 20.56 70.8355 20.34 71.2595 19.9C71.6915 19.46 71.9075 18.808 71.9075 17.944C71.9075 17.8 71.9035 17.64 71.8955 17.464C71.8875 17.288 71.8675 17.112 71.8355 16.936L72.3635 17.44C72.2275 17.752 72.0355 18.016 71.7875 18.232C71.5395 18.44 71.2515 18.6 70.9235 18.712C70.5955 18.816 70.2275 18.868 69.8195 18.868C69.2835 18.868 68.7955 18.76 68.3555 18.544C67.9235 18.328 67.5755 18.024 67.3115 17.632C67.0555 17.24 66.9275 16.78 66.9275 16.252C66.9275 15.676 67.0675 15.18 67.3475 14.764C67.6355 14.348 68.0195 14.028 68.4995 13.804C68.9875 13.572 69.5235 13.456 70.1075 13.456ZM70.2275 14.908C69.9475 14.908 69.7035 14.96 69.4955 15.064C69.2875 15.16 69.1235 15.304 69.0035 15.496C68.8835 15.68 68.8235 15.9 68.8235 16.156C68.8235 16.54 68.9515 16.848 69.2075 17.08C69.4715 17.304 69.8195 17.416 70.2515 17.416C70.5315 17.416 70.7795 17.364 70.9955 17.26C71.2195 17.148 71.3915 16.996 71.5115 16.804C71.6315 16.612 71.6915 16.396 71.6915 16.156C71.6915 15.916 71.6315 15.704 71.5115 15.52C71.3995 15.328 71.2355 15.18 71.0195 15.076C70.8035 14.964 70.5395 14.908 70.2275 14.908ZM78.5521 22.144C77.7841 22.144 77.1161 21.984 76.5481 21.664C75.9881 21.344 75.5561 20.876 75.2521 20.26C74.9481 19.644 74.7961 18.884 74.7961 17.98C74.7961 17.012 74.9761 16.192 75.3361 15.52C75.7041 14.848 76.2081 14.336 76.8481 13.984C77.4961 13.632 78.2401 13.456 79.0801 13.456C79.5281 13.456 79.9561 13.504 80.3641 13.6C80.7721 13.696 81.1241 13.84 81.4201 14.032L80.7001 15.46C80.4681 15.3 80.2201 15.192 79.9561 15.136C79.6921 15.072 79.4161 15.04 79.1281 15.04C78.4001 15.04 77.8241 15.26 77.4001 15.7C76.9761 16.14 76.7641 16.792 76.7641 17.656C76.7641 17.8 76.7641 17.96 76.7641 18.136C76.7721 18.312 76.7961 18.488 76.8361 18.664L76.2961 18.16C76.4481 17.848 76.6441 17.588 76.8841 17.38C77.1241 17.164 77.4081 17.004 77.7361 16.9C78.0721 16.788 78.4401 16.732 78.8401 16.732C79.3841 16.732 79.8721 16.84 80.3041 17.056C80.7361 17.272 81.0801 17.576 81.3361 17.968C81.6001 18.36 81.7321 18.82 81.7321 19.348C81.7321 19.916 81.5881 20.412 81.3001 20.836C81.0201 21.252 80.6401 21.576 80.1601 21.808C79.6881 22.032 79.1521 22.144 78.5521 22.144ZM78.4441 20.692C78.7161 20.692 78.9561 20.644 79.1641 20.548C79.3801 20.444 79.5481 20.296 79.6681 20.104C79.7881 19.912 79.8481 19.692 79.8481 19.444C79.8481 19.06 79.7161 18.756 79.4521 18.532C79.1961 18.3 78.8521 18.184 78.4201 18.184C78.1321 18.184 77.8801 18.24 77.6641 18.352C77.4481 18.456 77.2761 18.604 77.1481 18.796C77.0281 18.98 76.9681 19.196 76.9681 19.444C76.9681 19.684 77.0281 19.9 77.1481 20.092C77.2681 20.276 77.4361 20.424 77.6521 20.536C77.8681 20.64 78.1321 20.692 78.4441 20.692ZM86.2672 22V15.544H91.4392V17.08H87.7072L88.1272 16.672V22H86.2672ZM96.2353 22.096C95.6913 22.096 95.2153 21.976 94.8073 21.736C94.3993 21.496 94.0793 21.132 93.8473 20.644C93.6233 20.148 93.5113 19.524 93.5113 18.772C93.5113 18.012 93.6193 17.388 93.8353 16.9C94.0513 16.412 94.3633 16.048 94.7713 15.808C95.1793 15.568 95.6673 15.448 96.2353 15.448C96.8433 15.448 97.3873 15.588 97.8672 15.868C98.3553 16.14 98.7393 16.524 99.0193 17.02C99.3073 17.516 99.4513 18.1 99.4513 18.772C99.4513 19.452 99.3073 20.04 99.0193 20.536C98.7393 21.032 98.3553 21.416 97.8672 21.688C97.3873 21.96 96.8433 22.096 96.2353 22.096ZM92.4193 24.328V15.544H94.2073V16.864L94.1713 18.784L94.2913 20.692V24.328H92.4193ZM95.9113 20.56C96.2233 20.56 96.4993 20.488 96.7393 20.344C96.9873 20.2 97.1833 19.996 97.3273 19.732C97.4793 19.46 97.5553 19.14 97.5553 18.772C97.5553 18.396 97.4793 18.076 97.3273 17.812C97.1833 17.548 96.9873 17.344 96.7393 17.2C96.4993 17.056 96.2233 16.984 95.9113 16.984C95.5993 16.984 95.3193 17.056 95.0713 17.2C94.8233 17.344 94.6273 17.548 94.4833 17.812C94.3393 18.076 94.2673 18.396 94.2673 18.772C94.2673 19.14 94.3393 19.46 94.4833 19.732C94.6273 19.996 94.8233 20.2 95.0713 20.344C95.3193 20.488 95.5993 20.56 95.9113 20.56ZM100.763 22V15.544H102.623V18.064H105.431V15.544H107.303V22H105.431V19.588H102.623V22H100.763ZM109.767 22.096C109.447 22.096 109.171 21.988 108.939 21.772C108.715 21.548 108.603 21.264 108.603 20.92C108.603 20.576 108.715 20.3 108.939 20.092C109.171 19.876 109.447 19.768 109.767 19.768C110.095 19.768 110.371 19.876 110.595 20.092C110.819 20.3 110.931 20.576 110.931 20.92C110.931 21.264 110.819 21.548 110.595 21.772C110.371 21.988 110.095 22.096 109.767 22.096Z" fill="#2A2D46"/>
<path d="M118.667 22L114 16H124L118.667 22Z" fill="#2A2D46"/>
<path d="M9.66568 19.3948H9.66705C9.6682 19.3948 9.66934 19.3945 9.67049 19.3945H25.6055C25.9978 19.3945 26.3427 19.1343 26.4505 18.7571L29.9661 6.45241C30.0419 6.18713 29.9888 5.90195 29.8228 5.68176C29.6567 5.46158 29.3969 5.33203 29.1211 5.33203H7.6387L7.01042 2.50465C6.92093 2.10251 6.56433 1.81641 6.15234 1.81641H0.878906C0.393448 1.81641 0 2.20985 0 2.69531C0 3.18077 0.393448 3.57422 0.878906 3.57422H5.44739C5.55862 4.07524 8.45398 17.1046 8.6206 17.8542C7.68654 18.2602 7.03125 19.1915 7.03125 20.2734C7.03125 21.7273 8.21411 22.9102 9.66797 22.9102H25.6055C26.0909 22.9102 26.4844 22.5167 26.4844 22.0312C26.4844 21.5458 26.0909 21.1523 25.6055 21.1523H9.66797C9.18342 21.1523 8.78906 20.758 8.78906 20.2734C8.78906 19.7896 9.18205 19.3959 9.66568 19.3948ZM27.9559 7.08984L24.9424 17.6367H10.3729L8.02917 7.08984H27.9559Z" fill="#EB2D66"/>
<path d="M8.78906 25.5469C8.78906 27.0007 9.97192 28.1836 11.4258 28.1836C12.8796 28.1836 14.0625 27.0007 14.0625 25.5469C14.0625 24.093 12.8796 22.9102 11.4258 22.9102C9.97192 22.9102 8.78906 24.093 8.78906 25.5469ZM11.4258 24.668C11.9103 24.668 12.3047 25.0623 12.3047 25.5469C12.3047 26.0314 11.9103 26.4258 11.4258 26.4258C10.9412 26.4258 10.5469 26.0314 10.5469 25.5469C10.5469 25.0623 10.9412 24.668 11.4258 24.668Z" fill="#EB2D66"/>
<path d="M21.2109 25.5469C21.2109 27.0007 22.3938 28.1836 23.8477 28.1836C25.3015 28.1836 26.4844 27.0007 26.4844 25.5469C26.4844 24.093 25.3015 22.9102 23.8477 22.9102C22.3938 22.9102 21.2109 24.093 21.2109 25.5469ZM23.8477 24.668C24.3322 24.668 24.7266 25.0623 24.7266 25.5469C24.7266 26.0314 24.3322 26.4258 23.8477 26.4258C23.3631 26.4258 22.9688 26.0314 22.9688 25.5469C22.9688 25.0623 23.3631 24.668 23.8477 24.668Z" fill="#EB2D66"/>
</svg>
